<!DOCTYPE svg PUBLIC "-//W3C//DTD SVG 20010904//EN" "http://www.w3.org/TR/2001/REC-SVG-20010904/DTD/svg10.dtd">
<svg version="1.0" xmlns="http://www.w3.org/2000/svg" width="100px" height="100px" viewBox="0 0 1000 1000" preserveAspectRatio="xMidYMid meet">
<g id="layer101" fill="#333333" stroke="none">
 <path d="M380 991 c0 -4 -21 -11 -46 -15 -62 -8 -224 -64 -248 -85 -30 -26 -48 -71 -43 -105 14 -80 69 -291 88 -336 12 -28 37 -64 56 -80 l34 -30 -19 -28 c-39 -55 -59 -108 -66 -172 -4 -36 -10 -82 -13 -102 l-6 -38 85 0 85 0 55 133 c48 115 58 132 76 129 12 -2 49 -6 84 -10 l62 -7 25 -122 24 -123 87 0 87 0 7 38 c11 70 6 127 -19 186 -13 33 -23 60 -22 61 1 0 19 13 39 28 94 69 172 377 117 464 -10 17 -8 26 18 64 39 56 73 124 73 144 0 13 -38 15 -310 15 -170 0 -310 -4 -310 -9z m374 -342 c42 -33 31 -111 -24 -182 -49 -62 -142 -78 -179 -31 -12 15 -21 32 -21 38 0 6 7 0 16 -12 21 -31 61 -26 88 11 17 23 18 31 8 47 -7 12 -8 20 -2 20 17 0 11 22 -12 47 -28 30 -52 29 -77 -3 -24 -31 -28 -16 -6 26 21 41 60 59 126 60 42 0 63 -5 83 -21z m-465 -3 c29 -16 67 -64 57 -74 -3 -3 -6 0 -6 6 0 16 -35 33 -53 26 -19 -7 -37 -48 -37 -82 0 -70 69 -98 96 -39 l15 32 -6 -30 c-22 -107 -115 -98 -173 18 -55 111 7 194 107 143z m71 -101 c0 -8 -7 -15 -15 -15 -26 0 -18 20 13 29 1 1 2 -6 2 -14z"/>
 </g>

</svg>